HIERARCHY
ROOT Hips
{
	OFFSET 0.000000 0.000000 0.000000
	CHANNELS 6 Xposition Yposition Zposition Zrotation Yrotation Xrotation 
	JOINT LHipJoint
	{
		OFFSET 0.000000 0.000000 0.000000
		CHANNELS 3 Zrotation Yrotation Xrotation
		JOINT LeftUpLeg
		{
			OFFSET 1.363060 -1.794630 0.839290
			CHANNELS 3 Zrotation Yrotation Xrotation
			JOINT LeftLeg
			{
				OFFSET 2.448110 -6.726130 0.000000
				CHANNELS 3 Zrotation Yrotation Xrotation
				JOINT LeftFoot
				{
					OFFSET 2.562200 -7.039590 0.000000
					CHANNELS 3 Zrotation Yrotation Xrotation
					JOINT LeftToeBase
					{
						OFFSET 0.157640 -0.433110 2.322550
						CHANNELS 3 Zrotation Yrotation Xrotation
						End Site
						{
							OFFSET 0.000000 0.000000 0.000000
						}
					}
				}
			}
		}
	}
	JOINT RHipJoint
	{
		OFFSET 0.000000 0.000000 0.000000
		CHANNELS 3 Zrotation Yrotation Xrotation
		JOINT RightUpLeg
		{
			OFFSET -1.305520 -1.794630 0.839290
			CHANNELS 3 Zrotation Yrotation Xrotation
			JOINT RightLeg
			{
				OFFSET -2.542530 -6.985550 0.000000
				CHANNELS 3 Zrotation Yrotation Xrotation
				JOINT RightFoot
				{
					OFFSET -2.568260 -7.056230 0.000000
					CHANNELS 3 Zrotation Yrotation Xrotation
					JOINT RightToeBase
					{
						OFFSET -0.164730 -0.452590 2.363150
						CHANNELS 3 Zrotation Yrotation Xrotation
						End Site
						{
							OFFSET 0.000000 0.000000 0.000000
						}
					}
				}
			}
		}
	}
	JOINT LowerBack
	{
		OFFSET 0.000000 0.000000 0.000000
		CHANNELS 3 Zrotation Yrotation Xrotation
		JOINT Spine
		{
			OFFSET 0.028270 2.035590 -0.193380
			CHANNELS 3 Zrotation Yrotation Xrotation
			JOINT Spine1
			{
				OFFSET 0.056720 2.048850 -0.042750
				CHANNELS 3 Zrotation Yrotation Xrotation
				JOINT Neck
				{
					OFFSET 0.000000 0.000000 0.000000
					CHANNELS 3 Zrotation Yrotation Xrotation
					JOINT Neck1
					{
						OFFSET -0.054170 1.746240 0.172020
						CHANNELS 3 Zrotation Yrotation Xrotation
						JOINT Head
						{
							OFFSET 0.104070 1.761360 -0.123970
							CHANNELS 3 Zrotation Yrotation Xrotation
							End Site
							{
								OFFSET 0.000000 0.000000 0.000000
							}
						}
					}
				}
				JOINT LeftShoulder
				{
					OFFSET 0.000000 0.000000 0.000000
					CHANNELS 3 Zrotation Yrotation Xrotation
					JOINT LeftArm
					{
						OFFSET 3.362410 1.200890 -0.311210
						CHANNELS 3 Zrotation Yrotation Xrotation
						JOINT LeftForeArm
						{
							OFFSET 4.983000 -0.000000 -0.000000
							CHANNELS 3 Zrotation Yrotation Xrotation
							JOINT LeftHand
							{
								OFFSET 3.483560 -0.000000 -0.000000
								CHANNELS 3 Zrotation Yrotation Xrotation
								JOINT LeftFingerBase
								{
									OFFSET 0.000000 0.000000 0.000000
									CHANNELS 3 Zrotation Yrotation Xrotation
									JOINT LeftHandIndex1
									{
										OFFSET 0.715260 -0.000000 -0.000000
										CHANNELS 3 Zrotation Yrotation Xrotation
										End Site
										{
											OFFSET 0.000000 0.000000 0.000000
										}
									}
								}
								JOINT LThumb
								{
									OFFSET 0.000000 0.000000 0.000000
									CHANNELS 3 Zrotation Yrotation Xrotation
									End Site
									{
										OFFSET 0.000000 0.000000 0.000000
									}
								}
							}
						}
					}
				}
				JOINT RightShoulder
				{
					OFFSET 0.000000 0.000000 0.000000
					CHANNELS 3 Zrotation Yrotation Xrotation
					JOINT RightArm
					{
						OFFSET -3.136600 1.374050 -0.404650
						CHANNELS 3 Zrotation Yrotation Xrotation
						JOINT RightForeArm
						{
							OFFSET -5.241900 -0.000000 -0.000000
							CHANNELS 3 Zrotation Yrotation Xrotation
							JOINT RightHand
							{
								OFFSET -3.444170 -0.000000 -0.000000
								CHANNELS 3 Zrotation Yrotation Xrotation
								JOINT RightFingerBase
								{
									OFFSET 0.000000 0.000000 0.000000
									CHANNELS 3 Zrotation Yrotation Xrotation
									JOINT RightHandIndex1
									{
										OFFSET -0.622530 -0.000000 -0.000000
										CHANNELS 3 Zrotation Yrotation Xrotation
										End Site
										{
											OFFSET 0.000000 0.000000 0.000000
										}
									}
								}
								JOINT RThumb
								{
									OFFSET 0.000000 0.000000 0.000000
									CHANNELS 3 Zrotation Yrotation Xrotation
									End Site
									{
										OFFSET 0.000000 0.000000 0.000000
									}
								}
							}
						}
					}
				}
			}
		}
	}
}
MOTION
Frames: 4
Frame Time: 0.008333
10.082715 17.531000 -23.741250 -178.540781 1.836583 -173.869967 -2.060048 20.585993 5.791069 -14.771819 -7.194526 -13.898840 -6.858612 2.001212 19.936044 19.960076 -3.972408 -12.290267 -5.683530 24.352855 -5.807538 -1.501737 -20.538074 -4.764774 22.323081 -6.570043 -4.452955 -1.780859 1.706406 20.119405 -36.099289 19.000239 -14.460267 4.155171 -1.146457 -9.220104 1.805037 3.619905 4.765881 13.787451 3.662114 11.369082 -13.725507 -15.283224 -24.068610 -5.703372 -1.001243 -16.146658 4.277016 -0.674905 2.992185 -1.853323 0.201079 -12.358015 11.520931 27.145352 1.772314 -19.892281 -0.536611 11.293473 5.751166 -28.718409 -0.717511 4.001925 15.072435 -1.609195 4.104567 12.959943 0.000000 0.000000 0.000000 0.000000 0.000000 0.000000 0.000000 -22.393084 -38.233882 -6.939097 48.427455 24.394615 24.630089 -4.229148 8.657414 13.194041 -0.259162 -4.062043 4.034681 0.610795 -9.156637 0.000001 0.000000 0.000000 0.000000 0.000000 0.000000 0.000000 
10.083720 17.530400 -23.742450 -178.539477 1.838277 -173.868603 -2.058840 20.582250 5.792035 -14.766202 -7.193301 -13.897723 -6.859885 2.003646 19.933597 19.920944 -3.971124 -12.305541 -5.705708 24.343492 -5.815214 -1.500629 -20.542948 -4.769104 22.327632 -6.577144 -4.450193 -1.784291 1.702374 20.126586 -36.121558 18.998085 -14.467722 4.150300 -1.142130 -9.223710 1.801693 3.621108 4.771200 13.791633 3.663125 11.384144 -13.726404 -15.282644 -24.073110 -5.701104 -1.008219 -16.152765 4.280018 -0.682337 2.970795 -1.853869 0.194154 -12.367739 11.511052 27.149988 1.766656 -19.885344 -0.555819 11.302460 5.743671 -28.745246 -0.719250 4.000566 15.063339 -1.611079 4.102398 12.958665 0.000000 0.000000 0.000000 0.000000 0.000000 0.000000 0.000000 -22.387253 -38.228367 -6.931162 48.452783 24.378787 24.641993 -4.235031 8.660121 13.190659 -0.274523 -4.081464 4.039822 0.596725 -9.157717 0.000000 0.000000 0.000000 0.000000 0.000000 0.000000 0.000000 
10.084635 17.530100 -23.743650 -178.536566 1.840791 -173.865203 -2.059579 20.577074 5.790011 -14.757109 -7.190922 -13.898806 -6.861362 2.006945 19.936944 19.951699 -3.971868 -12.306383 -5.683257 24.350288 -5.805681 -1.499577 -20.545842 -4.771021 22.335710 -6.573238 -4.451524 -1.787158 1.701376 20.141830 -36.128580 19.004418 -14.478435 4.148427 -1.141030 -9.222598 1.798428 3.623543 4.781161 13.796364 3.666308 11.389751 -13.723730 -15.280697 -24.078476 -5.699735 -1.006386 -16.157461 4.285689 -0.680866 2.956831 -1.853017 0.189406 -12.374504 11.502664 27.155248 1.760584 -19.885795 -0.579025 11.315240 5.736568 -28.757321 -0.721878 4.003373 15.044998 -1.611775 4.104433 12.956452 0.000000 0.000000 0.000000 0.000000 0.000000 0.000000 0.000000 -22.377694 -38.232004 -6.924029 48.470979 24.379085 24.676992 -4.237050 8.650193 13.212770 -0.273003 -4.060247 4.049841 0.599973 -9.156392 -0.000007 0.000000 0.000000 0.000000 0.000000 0.000000 0.000000 
10.085460 17.529650 -23.745000 -178.532912 1.841661 -173.863533 -2.060532 20.576958 5.790600 -14.748443 -7.188836 -13.902988 -6.860710 2.013804 19.943929 19.940099 -3.967468 -12.321884 -5.692771 24.348062 -5.818883 -1.497124 -20.548254 -4.778966 22.341976 -6.581941 -4.445969 -1.792962 1.694614 20.151427 -36.137580 19.000500 -14.489167 4.150126 -1.139448 -9.230730 1.793205 3.624626 4.791291 13.806301 3.666854 11.408128 -13.710303 -15.279993 -24.100490 -5.700401 -1.000707 -16.154980 4.283290 -0.674693 2.923435 -1.852740 0.192467 -12.387220 11.506053 27.161374 1.735144 -19.933681 -0.602912 11.304457 5.759358 -28.729798 -0.720327 4.006589 15.023010 -1.608055 4.109687 12.951898 0.000000 0.000000 0.000000 0.000000 0.000000 0.000000 0.000000 -22.368585 -38.242195 -6.925323 48.483857 24.391180 24.708863 -4.236757 8.643051 13.237857 -0.269813 -4.045799 4.060967 0.605330 -9.155895 -0.000000 0.000000 0.000000 0.000000 0.000000 0.000000 0.000000 
